<svg width="29" height="29" viewBox="0 0 29 29" fill="none" xmlns="http://www.w3.org/2000/svg">
<path d="M24.0583 13.7721H24.744C26.0263 13.7721 26.6668 13.7721 27.1441 14.0478C27.4568 14.2284 27.7165 14.488 27.8971 14.8008C28.1727 15.278 28.1727 15.9185 28.1727 17.2009C28.1727 18.4832 28.1727 19.1237 27.8971 19.601C27.7165 19.9137 27.4568 20.1734 27.1441 20.3539C26.6668 20.6296 26.0263 20.6296 24.744 20.6296H24.0583M4.85739 13.7721H4.17165C2.8893 13.7721 2.24882 13.7721 1.77154 14.0478C1.45882 14.2284 1.19914 14.488 1.01859 14.8008C0.74292 15.278 0.74292 15.9185 0.74292 17.2009C0.74292 18.4832 0.74292 19.1237 1.01859 19.601C1.19914 19.9137 1.45882 20.1734 1.77154 20.3539C2.24882 20.6296 2.8893 20.6296 4.17165 20.6296H4.85739M14.4578 4.85745C15.0034 4.85745 15.5267 4.64071 15.9125 4.2549C16.2983 3.86909 16.5151 3.34583 16.5151 2.80022C16.5151 2.2546 16.2983 1.73134 15.9125 1.34553C15.5267 0.959725 15.0034 0.742981 14.4578 0.742981C13.9122 0.742981 13.3889 0.959725 13.0031 1.34553C12.6173 1.73134 12.4006 2.2546 12.4006 2.80022C12.4006 3.34583 12.6173 3.86909 13.0031 4.2549C13.3889 4.64071 13.9122 4.85745 14.4578 4.85745ZM14.4578 4.85745V8.97192M10.3434 14.4579V15.8294M18.5723 14.4579V15.8294M13.0863 8.97192H15.8293C19.7079 8.97192 21.6485 8.97192 22.8527 10.1775C24.0583 11.3816 24.0583 13.3223 24.0583 17.2009C24.0583 21.0794 24.0583 23.0201 22.8527 24.2243C21.6485 25.4298 19.7079 25.4298 15.8293 25.4298H14.4578C14.4578 25.4298 13.7721 28.1728 8.97186 28.1728C8.97186 28.1728 10.3434 26.7889 10.3434 25.4065C8.21343 25.342 6.94206 25.1048 6.06293 24.2243C4.85739 23.0201 4.85739 21.0794 4.85739 17.2009C4.85739 13.3223 4.85739 11.3816 6.06293 10.1775C7.2671 8.97192 9.20776 8.97192 13.0863 8.97192Z" stroke="#0E377C" stroke-width="1.5" stroke-linecap="round" stroke-linejoin="round"/>
</svg>
